<?xml version="1.0" standalone="no"?>
<!DOCTYPE svg PUBLIC "-//W3C//DTD SVG 20010904//EN"
 "http://www.w3.org/TR/2001/REC-SVG-20010904/DTD/svg10.dtd">
<svg version="1.0" xmlns="http://www.w3.org/2000/svg"
 width="612.000000pt" height="612.000000pt" viewBox="0 0 612.000000 612.000000"
 preserveAspectRatio="xMidYMid meet">
<metadata>
Created by potrace 1.11, written by Peter Selinger 2001-2013
</metadata>
<g transform="translate(0.000000,612.000000) scale(0.100000,-0.100000)"
fill="#000000" stroke="none">
<path d="M2928 5724 c-3 -2 -40 -6 -84 -9 -43 -3 -90 -8 -104 -10 -14 -2 -45
-6 -70 -10 -88 -13 -105 -16 -120 -20 -8 -2 -31 -7 -50 -10 -141 -24 -400
-113 -590 -202 -124 -59 -371 -206 -416 -248 -6 -5 -27 -21 -47 -35 -20 -14
-37 -28 -37 -32 0 -5 -5 -8 -10 -8 -6 0 -21 -10 -34 -22 -12 -13 -37 -35 -55
-50 -80 -65 -223 -213 -309 -318 -74 -91 -74 -91 -102 -130 -13 -19 -28 -39
-32 -45 -62 -78 -204 -337 -262 -478 -76 -184 -152 -443 -170 -582 -4 -27 -9
-59 -11 -70 -32 -153 -37 -475 -11 -700 5 -41 18 -131 23 -150 11 -53 15 -71
16 -87 1 -10 5 -18 10 -18 4 0 5 -4 2 -10 -10 -17 46 -208 119 -402 29 -80
121 -270 171 -353 19 -33 40 -70 47 -82 6 -13 15 -23 20 -23 4 0 8 -5 8 -10 0
-9 54 -91 82 -125 4 -5 22 -28 39 -50 16 -22 42 -56 57 -75 29 -37 205 -223
236 -249 10 -9 31 -27 46 -41 46 -42 83 -73 145 -120 33 -25 62 -47 65 -50 9
-10 175 -117 225 -145 98 -56 195 -105 209 -105 8 0 16 -4 18 -9 3 -9 138 -65
263 -108 69 -24 272 -77 330 -87 17 -3 39 -7 50 -9 11 -2 43 -8 70 -11 28 -4
64 -9 80 -12 120 -16 398 -22 525 -10 88 8 181 20 240 31 14 3 39 7 55 10 17
3 41 7 55 10 14 3 36 8 50 11 14 2 32 7 40 10 8 3 29 8 45 11 17 3 37 9 46 14
9 4 27 10 40 12 85 16 376 141 519 222 36 21 79 46 96 55 173 99 451 334 591
497 26 31 62 73 78 92 28 32 52 65 137 181 67 92 237 400 221 400 -5 0 -3 4 2
8 22 15 146 361 158 442 2 14 7 32 10 40 7 17 29 125 33 155 1 11 4 34 8 50
38 197 38 553 0 800 -3 22 -8 54 -10 70 -3 17 -7 38 -10 48 -3 11 -8 30 -10
43 -2 13 -6 34 -8 47 -4 24 -23 93 -59 207 -30 98 -100 274 -112 282 -5 4 -7
8 -2 8 12 0 -141 289 -170 318 -6 6 -15 21 -18 32 -3 11 -10 20 -14 20 -4 0
-13 12 -20 26 -6 15 -40 63 -74 108 -84 109 -85 111 -138 167 -26 27 -45 49
-44 49 2 0 -29 30 -68 68 -39 37 -82 79 -96 93 -52 52 -282 229 -299 229 -5 0
-12 4 -14 9 -4 11 -152 101 -166 101 -6 0 -12 4 -14 8 -3 8 -147 80 -248 125
-146 65 -465 158 -594 174 -16 2 -41 5 -55 8 -49 9 -156 19 -213 19 -32 1 -58
3 -58 6 0 3 -45 5 -100 5 -55 0 -100 -3 -100 -7 0 -4 -11 -3 -24 2 -13 5 -26
7 -28 4z m-273 -1387 c107 -1 195 2 195 6 0 4 8 4 17 -2 10 -5 26 -5 39 -1 12
5 24 7 27 4 8 -9 557 -9 557 -1 0 4 8 4 17 -2 10 -5 26 -5 39 -1 12 5 24 6 27
4 3 -3 81 -7 173 -8 199 -4 210 -6 292 -39 69 -28 192 -111 192 -129 0 -6 -3
-8 -7 -5 -3 4 -11 3 -17 -2 -19 -16 -226 -120 -226 -114 0 3 -9 -2 -20 -12
-11 -10 -20 -14 -20 -9 0 5 -4 4 -8 -2 -7 -10 -133 -74 -146 -74 -4 0 -12 -5
-19 -10 -7 -6 -60 -35 -119 -65 l-107 -54 -373 -1 c-205 -1 -380 -1 -388 -1
-83 3 -140 2 -147 -2 -5 -3 -15 -2 -22 2 -15 10 -95 -4 -131 -21 -77 -38 -101
-91 -100 -221 0 -56 -1 -160 -2 -231 l-3 -128 -85 -45 c-415 -218 -430 -225
-431 -201 -1 54 0 813 2 818 1 3 1 8 0 12 -1 10 19 110 26 128 4 8 7 17 8 20
8 30 31 80 37 80 4 0 8 5 8 10 0 17 41 71 93 123 44 44 148 119 172 123 6 1
27 9 48 18 20 9 37 14 37 11 0 -3 9 -1 20 5 10 6 42 12 71 14 28 3 53 7 56 10
3 3 10 3 14 0 5 -3 97 -6 204 -7z m1757 -1029 c0 -255 -1 -747 -1 -1094 l-1
-632 -198 2 -199 1 -41 28 c-78 51 -82 68 -82 380 l0 275 -753 1 -753 1 -1
-272 c-1 -283 -4 -306 -45 -353 -37 -43 -76 -58 -163 -61 -44 -1 -82 -3 -85
-5 -3 -1 -9 -1 -14 0 -4 1 -27 2 -50 1 -22 0 -50 0 -61 0 -11 0 -40 0 -65 0
l-45 0 1 434 c1 358 4 437 15 448 8 7 62 37 119 67 132 67 293 151 435 227
l110 58 600 2 c667 1 642 -1 711 69 19 19 35 36 36 38 1 1 4 135 7 297 l6 295
245 123 c134 67 249 127 254 132 5 5 12 8 14 5 2 -2 4 -212 4 -467z"/>
</g>
</svg>
